<svg xmlns="http://www.w3.org/2000/svg" xmlns:xlink="http://www.w3.org/1999/xlink" width="1032" height="512"><rect x="0" y="0" style="fill:#3b83df" width="1500" height="512"></rect> <defs> <linearGradient id="grad1" x1="60%" y1="0%" x2="100%" y2="0%"><stop offset="0%" style="stop-color:#8a4165;stop-opacity:1"></stop> <stop offset="100%" style="stop-color:#df465e;stop-opacity:.75"></stop> </linearGradient> </defs> <path style="fill:url(#grad1);" d="M460.3,297.7c0,0-16-28-14-36c2-8,32.5-170,32.5-170h74.1c0,0,29.4,157.4,27.4,168.7 c-2,11.3-10.1,35.8-17.4,42.3S491.7,343,460.3,297.7z"></path> <path style="fill:#df465e; stroke:#ffffff; stroke-width:0" opacity="1" d="M535,98.5c0,0,15,28.5,7.5,37.5s-6.8,11.1-13.5,14.5c-7.1,3.6-33.5,51.5-43.5,33.5s-17.5,5.5-17.5,20 s23.5,43.5,0,46s-9.5,20-2.5,28.5s14.5,36.6,14.5,36.6l25,3.9c0,0-23-18-15.5-28.5S469,271,488,268s27.6,12.1,28.1-8.7 c0.4-20.8-17.1-15.8-9.6-37.3s15-34.5,27-34.5s14.5,1,14.5-15s4.3-9.5,6.4-27S546.5,94,546.5,94L535,98.5z"></path> <circle style="fill:#df465e; stroke:#ffffff; stroke-width:0" opacity="1" cx="489" cy="204" r="6"></circle><circle style="fill:#df465e; stroke:#ffffff; stroke-width:0" opacity="1" cx="501" cy="168" r="7"></circle><circle style="fill:#df465e; stroke:#ffffff; stroke-width:0" opacity="1" cx="550" cy="195" r="7"></circle><circle style="fill:#df465e; stroke:#ffffff; stroke-width:0" opacity="1" cx="547" cy="200" r="9"></circle><circle style="fill:#df465e; stroke:#ffffff; stroke-width:0" opacity="1" cx="513" cy="220" r="4"></circle> <ellipse opacity="0.4" cx="512" cy="433.7" rx="92.5" ry="37"></ellipse> <path d="M485,47.7l-7.3,52c0,0,30.7,13.3,76.7,0l-9.3-52C545,47.7,530.3,36.3,485,47.7z"></path> <path d="M459.6,296.4L489,363l-49.3,70.7c0,0,77.3,65.3,147.3,0L539,363l27.3-65.3 C566.3,297.7,510.3,330.4,459.6,296.4z"></path> </svg>