<svg xmlns="http://www.w3.org/2000/svg" xmlns:xlink="http://www.w3.org/1999/xlink" width="1032" height="512"><rect x="0" y="0" style="fill:#9290c0" width="1500" height="512"></rect> <defs> <linearGradient id="grad1" x1="60%" y1="0%" x2="100%" y2="0%"><stop offset="0%" style="stop-color:#ad0d14;stop-opacity:1"></stop> <stop offset="100%" style="stop-color:#fd675b;stop-opacity:.75"></stop> </linearGradient> </defs> <path style="fill:url(#grad1);" d="M460.3,297.7c0,0-16-28-14-36c2-8,32.5-170,32.5-170h74.1c0,0,29.4,157.4,27.4,168.7 c-2,11.3-10.1,35.8-17.4,42.3S491.7,343,460.3,297.7z"></path> <path style="fill:#fd675b; stroke:#ffffff; stroke-width:0" opacity="1" d="M516.6,55.7c0,0,7.8,37.1,3.3,48.6s-4.2,14.3-8,18.6c-4.1,4.6-20.3,66.3-25.5,42.9s-10.1,6.9-10.4,25.7 c-0.4,18.8,12.2,56.6-1.2,59.6s-5.9,25.8-2.1,36.9c3.8,11.1,7.3,47.6,7.3,47.6l14.1,5.3c0,0-12.6-23.6-8.1-37.1 s-11.1-25.5-0.3-29.2c10.8-3.7,15.3,16,16.1-11c0.8-26.9-9.3-20.7-4.5-48.4c4.8-27.8,9.4-44.5,16.2-44.4c6.8,0.1,8.2,1.5,8.6-19.3 s2.7-12.3,4.3-34.9S523.3,50,523.3,50L516.6,55.7z"></path> <circle style="fill:#fd675b; stroke:#ffffff; stroke-width:0" opacity="1" cx="515" cy="148" r="4"></circle><circle style="fill:#fd675b; stroke:#ffffff; stroke-width:0" opacity="1" cx="532" cy="222" r="3"></circle><circle style="fill:#fd675b; stroke:#ffffff; stroke-width:0" opacity="1" cx="500" cy="158" r="2"></circle><circle style="fill:#fd675b; stroke:#ffffff; stroke-width:0" opacity="1" cx="527" cy="269" r="2"></circle><circle style="fill:#fd675b; stroke:#ffffff; stroke-width:0" opacity="1" cx="498" cy="120" r="4"></circle><circle style="fill:#fd675b; stroke:#ffffff; stroke-width:0" opacity="1" cx="546" cy="256" r="5"></circle><circle style="fill:#fd675b; stroke:#ffffff; stroke-width:0" opacity="1" cx="539" cy="162" r="2"></circle> <ellipse opacity="0.4" cx="512" cy="433.7" rx="92.5" ry="37"></ellipse> <path d="M485,47.7l-7.3,52c0,0,30.7,13.3,76.7,0l-9.3-52C545,47.7,530.3,36.3,485,47.7z"></path> <path d="M459.6,296.4L489,363l-49.3,70.7c0,0,77.3,65.3,147.3,0L539,363l27.3-65.3 C566.3,297.7,510.3,330.4,459.6,296.4z"></path> </svg>