<svg xmlns="http://www.w3.org/2000/svg" xmlns:xlink="http://www.w3.org/1999/xlink" width="1032" height="512"><rect x="0" y="0" style="fill:#eeed3b" width="1500" height="512"></rect> <defs> <linearGradient id="grad1" x1="60%" y1="0%" x2="100%" y2="0%"><stop offset="0%" style="stop-color:#e3d452;stop-opacity:1"></stop> <stop offset="100%" style="stop-color:#10d779;stop-opacity:.75"></stop> </linearGradient> </defs> <path style="fill:url(#grad1);" d="M460.3,297.7c0,0-16-28-14-36c2-8,32.5-170,32.5-170h74.1c0,0,29.4,157.4,27.4,168.7 c-2,11.3-10.1,35.8-17.4,42.3S491.7,343,460.3,297.7z"></path> <path style="fill:#10d779; stroke:#ffffff; stroke-width:0" opacity="1" d="M546.8,315.7c0,0-14.4-26-12.2-35.7c2.2-9.7,1.4-11.7,4.4-15.8c3.2-4.4,7.5-54.4,16.9-38s8.5-7.5,5.4-21.7 c-3.1-14.2-22.3-39.6-9.9-44.9c12.5-5.3,1-20.7-4.7-28.1c-5.7-7.4-15.9-34-15.9-34l-14.7-0.7c0,0,16.6,14.8,14.7,25.9 c-1.9,11.2,15.5,16.5,5.7,21.8s-17.9-8.5-13.7,11.9c4.2,20.4,12.8,13.4,13.3,35.3c0.5,21.9-0.9,35.5-7.5,37 c-6.6,1.5-8.2,0.8-4.8,16.4s-0.3,9.8,2.3,27.1c2.6,17.3,15.4,49.3,15.4,49.3L546.8,315.7z"></path> <path style="fill:#10d779; stroke:#ffffff; stroke-width:0" opacity="1" d="M535,98.5c0,0,15,28.5,7.5,37.5s-6.8,11.1-13.5,14.5c-7.1,3.6-33.5,51.5-43.5,33.5s-17.5,5.5-17.5,20 s23.5,43.5,0,46s-9.5,20-2.5,28.5s14.5,36.6,14.5,36.6l25,3.9c0,0-23-18-15.5-28.5S469,271,488,268s27.6,12.1,28.1-8.7 c0.4-20.8-17.1-15.8-9.6-37.3s15-34.5,27-34.5s14.5,1,14.5-15s4.3-9.5,6.4-27S546.5,94,546.5,94L535,98.5z"></path> <circle style="fill:#10d779; stroke:#ffffff; stroke-width:0" opacity="1" cx="492" cy="193" r="4"></circle><circle style="fill:#10d779; stroke:#ffffff; stroke-width:0" opacity="1" cx="538" cy="111" r="8"></circle><circle style="fill:#10d779; stroke:#ffffff; stroke-width:0" opacity="1" cx="502" cy="115" r="5"></circle><circle style="fill:#10d779; stroke:#ffffff; stroke-width:0" opacity="1" cx="525" cy="276" r="6"></circle><circle style="fill:#10d779; stroke:#ffffff; stroke-width:0" opacity="1" cx="485" cy="204" r="6"></circle><circle style="fill:#10d779; stroke:#ffffff; stroke-width:0" opacity="1" cx="515" cy="197" r="9"></circle> <ellipse opacity="0.4" cx="512" cy="433.7" rx="92.5" ry="37"></ellipse> <path d="M485,47.7l-7.3,52c0,0,30.7,13.3,76.7,0l-9.3-52C545,47.7,530.3,36.3,485,47.7z"></path> <path d="M459.6,296.4L489,363l-49.3,70.7c0,0,77.3,65.3,147.3,0L539,363l27.3-65.3 C566.3,297.7,510.3,330.4,459.6,296.4z"></path> </svg>