<svg xmlns="http://www.w3.org/2000/svg" xmlns:xlink="http://www.w3.org/1999/xlink" width="1032" height="512"><rect x="0" y="0" style="fill:#221d70" width="1500" height="512"></rect> <defs> <linearGradient id="grad1" x1="60%" y1="0%" x2="100%" y2="0%"><stop offset="0%" style="stop-color:#34adad;stop-opacity:1"></stop> <stop offset="100%" style="stop-color:#86f469;stop-opacity:.75"></stop> </linearGradient> </defs> <path style="fill:url(#grad1);" d="M460.3,297.7c0,0-16-28-14-36c2-8,32.5-170,32.5-170h74.1c0,0,29.4,157.4,27.4,168.7 c-2,11.3-10.1,35.8-17.4,42.3S491.7,343,460.3,297.7z"></path> <path style="fill:#86f469; stroke:#ffffff; stroke-width:0" opacity="1" d="M508,339l50-33l10.7-37.7c0,0,1-49.3-18.3-36.3C531,245,470,250.8,470,284.4s-2,28.6,0,33.6S508,339,508,339z"></path> <circle style="fill:#86f469; stroke:#ffffff; stroke-width:0" opacity="1" cx="499" cy="211" r="4"></circle><circle style="fill:#86f469; stroke:#ffffff; stroke-width:0" opacity="1" cx="513" cy="174" r="7"></circle><circle style="fill:#86f469; stroke:#ffffff; stroke-width:0" opacity="1" cx="511" cy="259" r="3"></circle><circle style="fill:#86f469; stroke:#ffffff; stroke-width:0" opacity="1" cx="499" cy="153" r="9"></circle><circle style="fill:#86f469; stroke:#ffffff; stroke-width:0" opacity="1" cx="495" cy="198" r="9"></circle> <ellipse opacity="0.4" cx="512" cy="433.7" rx="92.5" ry="37"></ellipse> <path d="M485,47.7l-7.3,52c0,0,30.7,13.3,76.7,0l-9.3-52C545,47.7,530.3,36.3,485,47.7z"></path> <path d="M459.6,296.4L489,363l-49.3,70.7c0,0,77.3,65.3,147.3,0L539,363l27.3-65.3 C566.3,297.7,510.3,330.4,459.6,296.4z"></path> </svg>