<svg xmlns="http://www.w3.org/2000/svg" xmlns:xlink="http://www.w3.org/1999/xlink" width="1032" height="512"><rect x="0" y="0" style="fill:#a1924d" width="1500" height="512"></rect> <defs> <linearGradient id="grad1" x1="60%" y1="0%" x2="100%" y2="0%"><stop offset="0%" style="stop-color:#e42593;stop-opacity:1"></stop> <stop offset="100%" style="stop-color:#1e9b6d;stop-opacity:.75"></stop> </linearGradient> </defs> <path style="fill:url(#grad1);" d="M460.3,297.7c0,0-16-28-14-36c2-8,32.5-170,32.5-170h74.1c0,0,29.4,157.4,27.4,168.7 c-2,11.3-10.1,35.8-17.4,42.3S491.7,343,460.3,297.7z"></path> <path style="fill:#1e9b6d; stroke:#ffffff; stroke-width:0" opacity="1" d="M527.7,250.9c0,0,30,14.7,4,32.7c-26,18-32.7,32.8-7.3,30.7c25.3-2.1,35.3-0.1,37.3-18.7 c2-18.7,10.7-38,0-44.7c-10.7-6.7-30.7-18-20-30c10.7-12,16.1-14.7,10.1-20c-6.1-5.3-11.8-3.2-18.7,7.3 C523.8,222.2,515.2,244.5,527.7,250.9z"></path> <circle style="fill:#1e9b6d; stroke:#ffffff; stroke-width:0" opacity="1" cx="514" cy="208" r="6"></circle><circle style="fill:#1e9b6d; stroke:#ffffff; stroke-width:0" opacity="1" cx="489" cy="179" r="4"></circle><circle style="fill:#1e9b6d; stroke:#ffffff; stroke-width:0" opacity="1" cx="525" cy="174" r="7"></circle><circle style="fill:#1e9b6d; stroke:#ffffff; stroke-width:0" opacity="1" cx="543" cy="197" r="7"></circle><circle style="fill:#1e9b6d; stroke:#ffffff; stroke-width:0" opacity="1" cx="490" cy="169" r="8"></circle><circle style="fill:#1e9b6d; stroke:#ffffff; stroke-width:0" opacity="1" cx="524" cy="226" r="2"></circle> <ellipse opacity="0.4" cx="512" cy="433.7" rx="92.5" ry="37"></ellipse> <path d="M485,47.7l-7.3,52c0,0,30.7,13.3,76.7,0l-9.3-52C545,47.7,530.3,36.3,485,47.7z"></path> <path d="M459.6,296.4L489,363l-49.3,70.7c0,0,77.3,65.3,147.3,0L539,363l27.3-65.3 C566.3,297.7,510.3,330.4,459.6,296.4z"></path> </svg>