<svg xmlns="http://www.w3.org/2000/svg" xmlns:xlink="http://www.w3.org/1999/xlink" width="1032" height="512"><rect x="0" y="0" style="fill:#14a463" width="1500" height="512"></rect> <defs> <linearGradient id="grad1" x1="60%" y1="0%" x2="100%" y2="0%"><stop offset="0%" style="stop-color:#e96389;stop-opacity:1"></stop> <stop offset="100%" style="stop-color:#1b099f;stop-opacity:.75"></stop> </linearGradient> </defs> <path style="fill:url(#grad1);" d="M460.3,297.7c0,0-16-28-14-36c2-8,32.5-170,32.5-170h74.1c0,0,29.4,157.4,27.4,168.7 c-2,11.3-10.1,35.8-17.4,42.3S491.7,343,460.3,297.7z"></path> <path style="fill:#1b099f; stroke:#ffffff; stroke-width:0" opacity="1" d="M482.5,327c0,0,5.6-50.1-9.2-71.4s2.8-3.6,12.4-38.3c16.6-60,33.2,30.3,25.6,33.9 c-13.6,6.4-12.5,6.3-16.2,15.4c-3.2,7.9-9,47.9,7.7,64.3C519.6,347.4,482.5,327,482.5,327z"></path> <path style="fill:#1b099f; stroke:#ffffff; stroke-width:0" opacity="1" d="M527,326c0,0,54-43,40-70s-25-6-40-11s-10.9-10.3-5-20.7c12.6-21.9,23-30.3,10-37.3s-19.7-70.7-10.7-63.7 c9,7-3.5,55.3-9.5,74.7c-7.5,23.7-13.6,33.7-25.8,38.7c-17.9,7.3-25,33.3-15,43.3s3,40.9,3,40.9L527,326z"></path> <circle style="fill:#1b099f; stroke:#ffffff; stroke-width:0" opacity="1" cx="494" cy="150" r="7"></circle><circle style="fill:#1b099f; stroke:#ffffff; stroke-width:0" opacity="1" cx="548" cy="288" r="3"></circle><circle style="fill:#1b099f; stroke:#ffffff; stroke-width:0" opacity="1" cx="528" cy="195" r="4"></circle><circle style="fill:#1b099f; stroke:#ffffff; stroke-width:0" opacity="1" cx="526" cy="192" r="6"></circle><circle style="fill:#1b099f; stroke:#ffffff; stroke-width:0" opacity="1" cx="488" cy="184" r="8"></circle><circle style="fill:#1b099f; stroke:#ffffff; stroke-width:0" opacity="1" cx="503" cy="259" r="9"></circle><circle style="fill:#1b099f; stroke:#ffffff; stroke-width:0" opacity="1" cx="519" cy="184" r="7"></circle> <ellipse opacity="0.4" cx="512" cy="433.7" rx="92.5" ry="37"></ellipse> <path d="M485,47.7l-7.3,52c0,0,30.7,13.3,76.7,0l-9.3-52C545,47.7,530.3,36.3,485,47.7z"></path> <path d="M459.6,296.4L489,363l-49.3,70.7c0,0,77.3,65.3,147.3,0L539,363l27.3-65.3 C566.3,297.7,510.3,330.4,459.6,296.4z"></path> </svg>