<svg xmlns="http://www.w3.org/2000/svg" xmlns:xlink="http://www.w3.org/1999/xlink" width="1032" height="512"><rect x="0" y="0" style="fill:#f3b12f" width="1500" height="512"></rect> <defs> <linearGradient id="grad1" x1="60%" y1="0%" x2="100%" y2="0%"><stop offset="0%" style="stop-color:#797eca;stop-opacity:1"></stop> <stop offset="100%" style="stop-color:#ea3671;stop-opacity:.75"></stop> </linearGradient> </defs> <path style="fill:url(#grad1);" d="M460.3,297.7c0,0-16-28-14-36c2-8,32.5-170,32.5-170h74.1c0,0,29.4,157.4,27.4,168.7 c-2,11.3-10.1,35.8-17.4,42.3S491.7,343,460.3,297.7z"></path> <path style="fill:#ea3671; stroke:#ffffff; stroke-width:0" opacity="1" d="M514.5,91.6c0,0-21,13.1-23.1,29.1s-27.3,32.4-10.9,44.6c16.4,12.1,52.4,21.7,14.3,41.6s-5.9,41.6,0,45.9 c5.9,4.3,70.1,9.5,31.1-24.3c-39-33.8,9.1-29.1,13.9-38.1c11.3-21.5-7-31.9-18.6-32.1c-18.3-0.2-12.9-24.3,7.2-37.6 c20.1-13.4,16.4-29.1,16.4-29.1H514.5z"></path> <path style="fill:#ea3671; stroke:#ffffff; stroke-width:0" opacity="1" d="M504.2,83.8c0,0-33.8,43-25,70c8.8,27,15.6,6,25,11s6.8,10.3,3.1,20.7c-7.9,21.9-14.4,30.3-6.3,37.3 s12.3,70.7,6.7,63.7c-5.6-7,2.2-55.3,6-74.7c4.7-23.7,8.5-33.7,16.1-38.7c11.2-7.3,15.6-33.3,9.4-43.3c-6.3-10-1.9-40.9-1.9-40.9 L504.2,83.8z"></path> <circle style="fill:#ea3671; stroke:#ffffff; stroke-width:0" opacity="1" cx="527" cy="158" r="9"></circle><circle style="fill:#ea3671; stroke:#ffffff; stroke-width:0" opacity="1" cx="485" cy="179" r="6"></circle><circle style="fill:#ea3671; stroke:#ffffff; stroke-width:0" opacity="1" cx="533" cy="138" r="5"></circle><circle style="fill:#ea3671; stroke:#ffffff; stroke-width:0" opacity="1" cx="521" cy="143" r="8"></circle> <ellipse opacity="0.4" cx="512" cy="433.7" rx="92.5" ry="37"></ellipse> <path d="M485,47.7l-7.3,52c0,0,30.7,13.3,76.7,0l-9.3-52C545,47.7,530.3,36.3,485,47.7z"></path> <path d="M459.6,296.4L489,363l-49.3,70.7c0,0,77.3,65.3,147.3,0L539,363l27.3-65.3 C566.3,297.7,510.3,330.4,459.6,296.4z"></path> </svg>