<svg xmlns="http://www.w3.org/2000/svg" xmlns:xlink="http://www.w3.org/1999/xlink" width="1032" height="512"><rect x="0" y="0" style="fill:#0abaf9" width="1500" height="512"></rect> <defs> <linearGradient id="grad1" x1="60%" y1="0%" x2="100%" y2="0%"><stop offset="0%" style="stop-color:#11cf08;stop-opacity:1"></stop> <stop offset="100%" style="stop-color:#14ed11;stop-opacity:.75"></stop> </linearGradient> </defs> <path style="fill:url(#grad1);" d="M460.3,297.7c0,0-16-28-14-36c2-8,32.5-170,32.5-170h74.1c0,0,29.4,157.4,27.4,168.7 c-2,11.3-10.1,35.8-17.4,42.3S491.7,343,460.3,297.7z"></path> <path style="fill:#14ed11; stroke:#ffffff; stroke-width:0" opacity="1" d="M504,309.3c0,0-34.9-41.9-26-83.4c8.9-41.4,4.2-57,15.7-67.2c11.5-10.2,17-51.3,17-51.3s5.2-6.6-15.9-19.4c-21.1-12.8-11,32.7-2.8,46.7c8.2,14.1,5.5,18.8,4.9,41s-32.1,24.7-26.2,45.7s24.4,38.6,33.4,62.3c9.1,23.7,11.9,42.8,11.9,42.8L504,309.3z"></path> <path style="fill:#14ed11; stroke:#ffffff; stroke-width:0" opacity="1" d="M481,94.5c0,0-6,10.5,5,28.5s54.5,56,55.5,44s-16-20.5-15.5-30s16.5-21.3,18.5-31.4s-10-29.1-10-29.1 l-56.8,23.2"></path> <circle style="fill:#14ed11; stroke:#ffffff; stroke-width:0" opacity="1" cx="531" cy="213" r="6"></circle><circle style="fill:#14ed11; stroke:#ffffff; stroke-width:0" opacity="1" cx="502" cy="126" r="6"></circle><circle style="fill:#14ed11; stroke:#ffffff; stroke-width:0" opacity="1" cx="492" cy="261" r="6"></circle><circle style="fill:#14ed11; stroke:#ffffff; stroke-width:0" opacity="1" cx="519" cy="202" r="5"></circle> <ellipse opacity="0.4" cx="512" cy="433.7" rx="92.5" ry="37"></ellipse> <path d="M485,47.7l-7.3,52c0,0,30.7,13.3,76.7,0l-9.3-52C545,47.7,530.3,36.3,485,47.7z"></path> <path d="M459.6,296.4L489,363l-49.3,70.7c0,0,77.3,65.3,147.3,0L539,363l27.3-65.3 C566.3,297.7,510.3,330.4,459.6,296.4z"></path> </svg>