<svg xmlns="http://www.w3.org/2000/svg" xmlns:xlink="http://www.w3.org/1999/xlink" width="1032" height="512"><rect x="0" y="0" style="fill:#6b28d2" width="1500" height="512"></rect> <defs> <linearGradient id="grad1" x1="60%" y1="0%" x2="100%" y2="0%"><stop offset="0%" style="stop-color:#9e432a;stop-opacity:1"></stop> <stop offset="100%" style="stop-color:15e2e1;stop-opacity:.75"></stop> </linearGradient> </defs> <path style="fill:url(#grad1);" d="M460.3,297.7c0,0-16-28-14-36c2-8,32.5-170,32.5-170h74.1c0,0,29.4,157.4,27.4,168.7 c-2,11.3-10.1,35.8-17.4,42.3S491.7,343,460.3,297.7z"></path> <path style="fill:15e2e1; stroke:#ffffff; stroke-width:0" opacity="1" d="M472,256c5.8,24.3,13,90,51,84s16-24,16-24s-28-13-12-60s37-68,11-83s-22-49-22-49s18-25,11-31s-48,2-40,26 s0,51,15,55s29.3,44,9.1,51S468.2,240,472,256z"></path> <path style="fill:15e2e1; stroke:#ffffff; stroke-width:0" opacity="1" d="M552.6,178.3c-4-24.7-6.7-90.7-45-87.4c-38.3,3.3-17.6,22.8-17.6,22.8s27,14.9,7.8,60.7s-41.7,65.2-16.8,82 c24.9,16.8,18.5,50.4,18.5,50.4s-19.7,23.7-13.1,30.2s48,1.4,41.7-23.1c-6.3-24.5,3.6-50.9-11.1-55.9c-14.7-5-26.1-45.9-5.5-51.5 C531.9,200.9,555.2,194.6,552.6,178.3z"></path> <path style="fill:15e2e1; stroke:#ffffff; stroke-width:0" opacity="1" d="M514.5,91.6c0,0-21,13.1-23.1,29.1s-27.3,32.4-10.9,44.6c16.4,12.1,52.4,21.7,14.3,41.6s-5.9,41.6,0,45.9 c5.9,4.3,70.1,9.5,31.1-24.3c-39-33.8,9.1-29.1,13.9-38.1c11.3-21.5-7-31.9-18.6-32.1c-18.3-0.2-12.9-24.3,7.2-37.6 c20.1-13.4,16.4-29.1,16.4-29.1H514.5z"></path> <circle style="fill:15e2e1; stroke:#ffffff; stroke-width:0" opacity="1" cx="512" cy="220" r="6"></circle><circle style="fill:15e2e1; stroke:#ffffff; stroke-width:0" opacity="1" cx="505" cy="190" r="3"></circle><circle style="fill:15e2e1; stroke:#ffffff; stroke-width:0" opacity="1" cx="523" cy="190" r="5"></circle><circle style="fill:15e2e1; stroke:#ffffff; stroke-width:0" opacity="1" cx="492" cy="213" r="6"></circle><circle style="fill:15e2e1; stroke:#ffffff; stroke-width:0" opacity="1" cx="507" cy="248" r="7"></circle><circle style="fill:15e2e1; stroke:#ffffff; stroke-width:0" opacity="1" cx="532" cy="285" r="8"></circle><circle style="fill:15e2e1; stroke:#ffffff; stroke-width:0" opacity="1" cx="550" cy="268" r="2"></circle> <ellipse opacity="0.4" cx="512" cy="433.7" rx="92.5" ry="37"></ellipse> <path d="M485,47.7l-7.3,52c0,0,30.7,13.3,76.7,0l-9.3-52C545,47.7,530.3,36.3,485,47.7z"></path> <path d="M459.6,296.4L489,363l-49.3,70.7c0,0,77.3,65.3,147.3,0L539,363l27.3-65.3 C566.3,297.7,510.3,330.4,459.6,296.4z"></path> </svg>