<?xml version="1.0" encoding="utf-8"?>
<!-- Generator: Adobe Illustrator 20.1.0, SVG Export Plug-In . SVG Version: 6.00 Build 0)  -->
<svg version="1.0" id="Capa_1" xmlns="http://www.w3.org/2000/svg" xmlns:xlink="http://www.w3.org/1999/xlink" x="0px" y="0px"
	 viewBox="0 0 252 334" style="enable-background:new 0 0 252 334;" xml:space="preserve">
<style type="text/css">
	.st0{fill:#C2C3C8;}
	.st1{fill:#FFFFFF;}
</style>
<g>
	<g>
		
			<image style="overflow:visible;opacity:0.8;" width="1171" height="1464" xlink:href="FEEEEEE4433DDE93.png"  transform="matrix(0.24 0 0 0.24 -21 -1)">
		</image>
		<g>
			<g>
				<polygon points="42.2,182.8 28.1,182.8 28.1,196.8 28.1,210.9 42.2,210.9 42.2,196.8 				"/>
				<polygon points="56.2,210.9 42.2,210.9 42.2,224.9 42.2,239 56.2,239 56.2,224.9 				"/>
				<rect x="14.1" y="168.7" width="14.1" height="14.1"/>
				<path d="M14.1,140.6L14.1,140.6l0,28h14.1v14.1h14.1v28.1h14.1v28.1h14.1V267h14.1v28.1h112.4V267h14.1v-42.2h14.1v-98.3h-14.1
					v-14.1h-14v42.2h-14.2V98.4h-28v42.2h0v-14.1v-14.1V98.4h14.1h14.1V84.4h-14.1h-14.1h-14.1v14.1v14.1v14.1v14.1h0V84.4h0V70.3
					h-14.1h-14.1V56.2V42.2V28.1V14.1H98.4v14.1v14.1v14.1v14.1v14.1v14.1v14.1v14.1v14.1h0V14.1h0V0H84.4H70.3v14.1h0.1v182.8H56.2
					v-42.2H42.1v-14.1h0v-14.1H28.1H14.1H0v14.1v14.1v14.1h14.1v-14.1V140.6z M112.5,126.5v-14.1V98.4V84.4h0.1v56.2h-0.1V126.5z"/>
				<rect x="210.9" y="112.5" width="14.1" height="14.1"/>
				<polygon points="182.8,126.5 182.8,140.6 182.8,154.6 196.8,154.6 196.8,140.6 196.8,126.5 196.8,112.5 210.9,112.5 210.9,98.4 
					196.8,98.4 182.8,98.4 182.8,112.5 				"/>
				<polygon points="224.9,126.5 224.9,140.6 224.9,154.6 224.9,168.7 224.9,182.8 224.9,196.8 224.9,210.9 224.9,224.9 239,224.9 
					239,210.9 239,196.8 239,182.8 239,168.7 239,154.6 239,140.6 239,126.5 				"/>
				<polygon points="210.9,239 210.9,253.1 210.9,267.1 224.9,267.1 224.9,253.1 224.9,239 224.9,224.9 210.9,224.9 				"/>
				<polygon points="196.8,281.2 196.8,295.2 182.8,295.2 168.7,295.2 154.6,295.2 140.6,295.2 126.5,295.2 112.5,295.2 98.4,295.2 
					84.4,295.2 84.4,281.2 84.4,267.1 70.3,267.1 70.3,281.2 70.3,295.2 70.3,309.3 84.4,309.3 98.4,309.3 112.5,309.3 126.5,309.3 
					140.6,309.3 154.6,309.3 168.7,309.3 182.8,309.3 196.8,309.3 210.9,309.3 210.9,295.2 210.9,281.2 210.9,267.1 196.8,267.1 
									"/>
				<polygon points="56.2,154.6 56.2,168.7 56.2,182.8 56.2,196.8 70.3,196.8 70.3,182.8 70.3,168.7 70.3,154.6 70.3,140.6 
					70.3,126.5 70.3,112.5 70.3,98.4 70.3,84.4 70.3,70.3 70.3,56.2 70.3,42.2 70.3,28.1 70.3,14.1 56.2,14.1 56.2,28.1 56.2,42.2 
					56.2,56.2 56.2,70.3 56.2,84.4 56.2,98.4 56.2,112.5 56.2,126.5 56.2,140.6 42.2,140.6 42.2,154.6 				"/>
				<polygon points="70.3,239 56.2,239 56.2,253.1 56.2,267.1 70.3,267.1 70.3,253.1 				"/>
			</g>
		</g>
	</g>
	<g>
		<rect x="70.3" y="0" width="14.1" height="14.1"/>
		<rect x="56.2" y="14.1" width="14.1" height="14.1"/>
		<rect x="98.4" y="14.1" width="14.1" height="14.1"/>
		<rect x="56.2" y="28.1" width="14.1" height="14.1"/>
		<rect x="98.4" y="28.1" width="14.1" height="14.1"/>
		<rect x="56.2" y="42.2" width="14.1" height="14.1"/>
		<rect x="98.4" y="42.2" width="14.1" height="14.1"/>
		<rect x="56.2" y="56.2" width="14.1" height="14.1"/>
		<rect x="98.4" y="56.2" width="14.1" height="14.1"/>
		<rect x="56.2" y="70.3" width="14.1" height="14.1"/>
		<rect x="98.4" y="70.3" width="14.1" height="14.1"/>
		<rect x="112.5" y="70.3" width="14.1" height="14.1"/>
		<rect x="126.5" y="70.3" width="14.1" height="14.1"/>
		<rect x="56.2" y="84.4" width="14.1" height="14.1"/>
		<rect x="98.4" y="84.4" width="14.1" height="14.1"/>
		<rect x="56.2" y="98.4" width="14.1" height="14.1"/>
		<rect x="98.4" y="98.4" width="14.1" height="14.1"/>
		<rect x="56.2" y="112.5" width="14.1" height="14.1"/>
		<rect x="98.4" y="112.5" width="14.1" height="14.1"/>
		<rect x="56.2" y="126.5" width="14.1" height="14.1"/>
		<rect x="28.1" y="126.5" width="14.1" height="14.1"/>
		<rect x="28.1" y="182.8" width="14.1" height="14.1"/>
		<rect x="28.1" y="196.8" width="14.1" height="14.1"/>
		<rect x="42.2" y="210.9" width="14.1" height="14.1"/>
		<rect x="42.2" y="224.9" width="14.1" height="14.1"/>
		<rect x="14.1" y="126.5" width="14.1" height="14.1"/>
		<rect x="14.1" y="168.7" width="14.1" height="14.1"/>
		<rect y="126.5" width="14.1" height="14.1"/>
		<rect y="140.6" width="14.1" height="14.1"/>
		<rect y="154.6" width="14.1" height="14.1"/>
		<rect x="98.4" y="126.5" width="14.1" height="14.1"/>
		<rect x="140.6" y="84.4" width="14.1" height="14.1"/>
		<rect x="154.6" y="84.4" width="14.1" height="14.1"/>
		<rect x="168.7" y="84.4" width="14.1" height="14.1"/>
		<rect x="140.6" y="98.4" width="14.1" height="14.1"/>
		<rect x="140.6" y="112.5" width="14.1" height="14.1"/>
		<rect x="140.6" y="126.5" width="14.1" height="14.1"/>
		<rect x="182.8" y="98.4" width="14.1" height="14.1"/>
		<rect x="196.8" y="98.4" width="14.1" height="14.1"/>
		<rect x="210.9" y="112.5" width="14.1" height="14.1"/>
		<rect x="182.8" y="112.5" width="14.1" height="14.1"/>
		<rect x="182.8" y="126.5" width="14.1" height="14.1"/>
		<rect x="224.9" y="126.5" width="14.1" height="14.1"/>
		<rect x="224.9" y="140.6" width="14.1" height="14.1"/>
		<rect x="224.9" y="154.6" width="14.1" height="14.1"/>
		<rect x="224.9" y="168.7" width="14.1" height="14.1"/>
		<rect x="224.9" y="182.8" width="14.1" height="14.1"/>
		<rect x="224.9" y="196.8" width="14.1" height="14.1"/>
		<rect x="224.9" y="210.9" width="14.1" height="14.1"/>
		<rect x="210.9" y="224.9" width="14.1" height="14.1"/>
		<rect x="210.9" y="239" width="14.1" height="14.1"/>
		<rect x="210.9" y="253.1" width="14.1" height="14.1"/>
		<rect x="196.8" y="267.1" width="14.1" height="14.1"/>
		<rect x="196.8" y="281.2" width="14.1" height="14.1"/>
		<rect x="196.8" y="295.2" width="14.1" height="14.1"/>
		<rect x="182.8" y="140.6" width="14.1" height="14.1"/>
		<rect x="56.2" y="140.6" width="14.1" height="14.1"/>
		<rect x="42.2" y="140.6" width="14.1" height="14.1"/>
		<rect x="56.2" y="154.6" width="14.1" height="14.1"/>
		<rect x="56.2" y="168.7" width="14.1" height="14.1"/>
		<rect x="56.2" y="182.8" width="14.1" height="14.1"/>
		<rect x="56.2" y="239" width="14.1" height="14.1"/>
		<rect x="56.2" y="253.1" width="14.1" height="14.1"/>
		<rect x="70.3" y="267.1" width="14.1" height="14.1"/>
		<rect x="70.3" y="281.2" width="14.1" height="14.1"/>
		<rect x="70.3" y="295.2" width="14.1" height="14.1"/>
		<rect x="84.4" y="295.2" width="14.1" height="14.1"/>
		<rect x="98.4" y="295.2" width="14.1" height="14.1"/>
		<rect x="112.5" y="295.2" width="14.1" height="14.1"/>
		<rect x="126.5" y="295.2" width="14.1" height="14.1"/>
		<rect x="140.6" y="295.2" width="14.1" height="14.1"/>
		<rect x="154.6" y="295.2" width="14.1" height="14.1"/>
		<rect x="168.7" y="295.2" width="14.1" height="14.1"/>
		<rect x="182.8" y="295.2" width="14.1" height="14.1"/>
		<rect x="84.4" y="0" width="14.1" height="14.1"/>
	</g>
	<polygon class="st1" points="210.8,224.8 210.8,267 196.8,267 196.8,295.1 84.4,295.1 84.4,267 70.3,267 70.3,238.9 56.3,238.9 
		56.3,210.8 42.2,210.8 42.2,182.7 28.2,182.7 28.2,168.6 14.1,168.6 14.1,140.6 42.1,140.6 42.1,154.6 56.2,154.6 56.2,196.8 
		70.3,196.8 70.3,14.1 98.4,14.1 98.4,140.6 112.5,140.6 112.5,84.4 140.5,84.4 140.5,140.6 154.7,140.6 154.7,98.4 182.7,98.4 
		182.7,154.6 196.9,154.6 196.9,112.5 210.8,112.5 210.8,126.5 224.9,126.5 224.9,224.8 	"/>
</g>
</svg>
